# xmcd
# Track frame offsets:
# 150
# 13308
# 23313
# 34060
# 46454
# 59512
# 73467
# 83998
# 98318
# 108856
# 120488
# 132533
# 143275
# 152984
# 166478
# 177425
# 189645
# 199806
# 210872
# 223733
#
# Disc length: 3134 seconds
# Revision: 0
# Processed by: cddbd v1.5.2PL0 Copyright (c) Steve Scherf et al.
# Submitted via: VisiTrax 2.11.3.279 - For more info visit www.synapsa.com
#
DISCID=190c3c14
DTITLE=Various (1930s-1950s) Rock n Roll and Blues and Jazz Artists - Roots Of Ro
DTITLE=ck and Roll: Rough And Rowdy: CD6 of 10: *ReMastered Tracks
DYEAR=2014
DGENRE=Rock n Roll
TTITLE0=Little Esther - Hollerin And Screamin'*
TTITLE1=Mike Gordon and The El Tempos - You Got To Give*
TTITLE2=Jimmy Rushing - Hi Ho Sylvester*
TTITLE3=Harold Burage - You Eat Too Much*
TTITLE4=Fluffy Hunter - The Woman Walkin' Blues*
TTITLE5=Wynonie Harris - The Deacon Don't Like It*
TTITLE6=Roy Brown - Fanny Brown Got Married*
TTITLE7=Lionel Hampton - Hey Ba-Ba-Re-Ba*
TTITLE8=Sunneyland Slim - It's You Baby*
TTITLE9=Tiny Grimes - Hey Now*
TTITLE10=Tiny Topsy - Come On, Come On, Come On*
TTITLE11=Calin Boze - Safronia B*
TTITLE12=Fats Noel - Ride Daddy, Ride*
TTITLE13=Milt Trenier - Flip Our Wings*
TTITLE14=Freddie Kohlman and His Orchestra - Hole In The Ground*
TTITLE15=Tiny Bradshaw - Breakin' Up The House*
TTITLE16=Harold Burage - She Knocks Me Out*
TTITLE17=Stomp Gordon - Damp Rag*
TTITLE18=Otis Rush - Three Times A Fool*
TTITLE19=Sly Fox - I'm Tired Of Beggin'*
EXTD=Compilation and ReMastering: Documents-The Intense Media: 2014
EXTT0=
EXTT1=
EXTT2=
EXTT3=
EXTT4=
EXTT5=
EXTT6=
EXTT7=
EXTT8=
EXTT9=
EXTT10=
EXTT11=
EXTT12=
EXTT13=
EXTT14=
EXTT15=
EXTT16=
EXTT17=
EXTT18=
EXTT19=
PLAYORDER=
